<svg xmlns="http://www.w3.org/2000/svg" width="1440" height="157" viewBox="0 0 1440 157">
    <g fill="#FFF" fill-rule="evenodd">
        <path fill-opacity=".16" d="M-19.964 88.69c159.99-41.293 309.372-61.94 448.146-61.94 208.16 0 467.483 71.011 594.826 71.011 84.896 0 226.919-33.467 426.07-100.4v140.984H-19.689l-.275-49.655z"/>
        <path fill-opacity=".6" d="M-44.347 75.85C15.633 49.55 103.778 36.4 220.09 36.4c174.466 0 394.238 45.579 629.701 46.48 235.464.9 460.19-53.263 629.138-53.243 112.631.012 145.654 17.76 99.068 53.242l-99.068 80.062H-14.588l-29.76-87.092z"/>
        <path d="M-160 135.345C1.174 103.698 191.054 88.505 409.64 89.77c327.88 1.895 508.277 42.305 755.145 42.305 164.579 0 278.526-8.41 341.841-25.231v50.982H16.876L-160 135.345z"/>
        <path fill-opacity=".4" d="M-9.234 24.71C155.441 74.083 304.54 98.77 438.061 98.77c200.283 0 298.827-50.254 513.356-50.254 143.02 0 311.163 20.846 504.428 62.54v21.46H-12.772L-9.234 24.71z"/>
    </g>
</svg>
