<?xml version="1.0" encoding="utf-8"?>
<!-- Generator: Adobe Illustrator 21.0.0, SVG Export Plug-In . SVG Version: 6.00 Build 0)  -->
<svg version="1.1" id="Layer_1" xmlns="http://www.w3.org/2000/svg" xmlns:xlink="http://www.w3.org/1999/xlink" x="0px" y="0px"
	 viewBox="0 0 1440 157.8" enable-background="new 0 0 1440 157.8" xml:space="preserve">
<g>
	<defs>
		<rect id="SVGID_1_" width="1440" height="157.8"/>
	</defs>
	<clipPath id="SVGID_2_">
		<use xlink:href="#SVGID_1_"  overflow="visible"/>
	</clipPath>
	<g clip-path="url(#SVGID_2_)">
		<path fill="#DD3D51" fill-opacity="0.3" d="M-20,88.7c160-41.3,309.4-61.9,448.1-61.9c208.2,0,467.5,71,594.8,71
			c84.9,0,226.9-33.5,426.1-100.4v141H-19.7C-19.7,138.3-20,88.7-20,88.7z"/>
		<path fill="#DD3D51" fill-opacity="0.25" d="M-44.3,75.8c60-26.3,148.1-39.4,264.4-39.4c174.5,0,394.2,45.6,629.7,46.5
			c235.5,0.9,460.2-53.3,629.1-53.2c112.6,0,145.7,17.8,99.1,53.2l-99.1,80.1H-14.6L-44.3,75.8L-44.3,75.8z"/>
		<path fill="#DD3D51" d="M-160,135.3C1.2,103.7,191.1,88.5,409.6,89.8c327.9,1.9,508.3,42.3,755.1,42.3
			c164.6,0,278.5-8.4,341.8-25.2v51H16.9L-160,135.3z"/>
		<path opacity="0.406" fill="#DB3A4D" enable-background="new    " d="M-9.2,24.7c164.7,49.4,313.8,74.1,447.3,74.1
			c200.3,0,298.8-50.3,513.4-50.3c143,0,311.2,20.8,504.4,62.5v21.5H-12.8L-9.2,24.7z"/>
	</g>
</g>
</svg>
